<svg width="84" height="84" viewBox="0 0 84 84" fill="none" xmlns="http://www.w3.org/2000/svg">
<circle cx="42" cy="42" r="42" fill="#0E9888"/>
<path fill-rule="evenodd" clip-rule="evenodd" d="M42.8073 17.3609C42.2956 17.1221 41.7044 17.1221 41.1927 17.3609L18.2836 28.0518C17.6114 28.3654 17.1818 29.04 17.1818 29.7818V56.1272C17.1818 56.8691 17.6114 57.5434 18.2836 57.8573L41.1927 68.5482C41.7044 68.7868 42.2956 68.7868 42.8073 68.5482L65.7163 57.8573C66.3887 57.5434 66.8182 56.8691 66.8182 56.1272V29.7818C66.8182 29.04 66.3887 28.3654 65.7163 28.0518L42.8073 17.3609ZM42 26.3712L36.1979 23.9053L42 21.1976L47.8021 23.9053L42 26.3712ZM42.7467 30.2025L52.455 26.0765L60.22 29.7003L42 37.4438L23.78 29.7003L31.5451 26.0765L41.2533 30.2025C41.7304 30.4053 42.2696 30.4053 42.7467 30.2025ZM43.9091 40.7811L63 32.6675V44.595L55.6771 47.9636C54.3224 48.5867 53.4546 49.9413 53.4546 51.4324V59.3658L43.9091 63.8205V40.7811ZM57.2728 57.5843L63 54.9115V48.7978L57.2728 51.4324V57.5843ZM40.0909 40.7811V63.8205L30.5543 59.37V51.4323C30.5543 49.9412 29.6864 48.5866 28.3318 47.9635L21 44.5908V32.6675L40.0909 40.7811ZM21 54.9115L26.7361 57.5881V51.4323L21 48.7936V54.9115Z" fill="white"/>
</svg>
