<svg width="46" height="46" viewBox="0 0 46 46" fill="none" xmlns="http://www.w3.org/2000/svg">
<circle cx="23" cy="23" r="23" fill="black"/>
<path d="M18.176 17.928C18.2293 17.8427 18.304 17.8 18.4 17.8H20.272C20.3253 17.8 20.368 17.8213 20.4 17.864C20.4427 17.896 20.464 17.9387 20.464 17.992V28.808C20.464 28.8613 20.4427 28.9093 20.4 28.952C20.368 28.984 20.3253 29 20.272 29H18.4C18.3467 29 18.2987 28.984 18.256 28.952C18.224 28.9093 18.208 28.8613 18.208 28.808V21.752C18.208 21.7093 18.1973 21.688 18.176 21.688C18.1547 21.688 18.1333 21.704 18.112 21.736L16.416 24.392C16.3627 24.4773 16.288 24.52 16.192 24.52H15.248C15.152 24.52 15.0773 24.4773 15.024 24.392L13.328 21.736C13.3067 21.704 13.2853 21.6933 13.264 21.704C13.2427 21.704 13.232 21.7253 13.232 21.768V28.808C13.232 28.8613 13.2107 28.9093 13.168 28.952C13.136 28.984 13.0933 29 13.04 29H11.168C11.1147 29 11.0667 28.984 11.024 28.952C10.992 28.9093 10.976 28.8613 10.976 28.808V17.992C10.976 17.9387 10.992 17.896 11.024 17.864C11.0667 17.8213 11.1147 17.8 11.168 17.8H13.04C13.136 17.8 13.2107 17.8427 13.264 17.928L15.664 21.656C15.696 21.72 15.728 21.72 15.76 21.656L18.176 17.928ZM23.4855 19.848C23.1228 19.848 22.8188 19.7307 22.5735 19.496C22.3388 19.2507 22.2215 18.9467 22.2215 18.584C22.2215 18.2107 22.3388 17.9067 22.5735 17.672C22.8082 17.4373 23.1122 17.32 23.4855 17.32C23.8588 17.32 24.1628 17.4373 24.3975 17.672C24.6322 17.9067 24.7495 18.2107 24.7495 18.584C24.7495 18.9467 24.6268 19.2507 24.3815 19.496C24.1468 19.7307 23.8482 19.848 23.4855 19.848ZM22.5255 29C22.4722 29 22.4242 28.984 22.3815 28.952C22.3495 28.9093 22.3335 28.8613 22.3335 28.808V20.952C22.3335 20.8987 22.3495 20.856 22.3815 20.824C22.4242 20.7813 22.4722 20.76 22.5255 20.76H24.3975C24.4508 20.76 24.4935 20.7813 24.5255 20.824C24.5682 20.856 24.5895 20.8987 24.5895 20.952V28.808C24.5895 28.8613 24.5682 28.9093 24.5255 28.952C24.4935 28.984 24.4508 29 24.3975 29H22.5255ZM30.6356 20.648C31.489 20.648 32.177 20.9093 32.6996 21.432C33.2223 21.9547 33.4836 22.664 33.4836 23.56V28.808C33.4836 28.8613 33.4623 28.9093 33.4196 28.952C33.3876 28.984 33.345 29 33.2916 29H31.4196C31.3663 29 31.3183 28.984 31.2756 28.952C31.2436 28.9093 31.2276 28.8613 31.2276 28.808V24.024C31.2276 23.5973 31.105 23.2507 30.8596 22.984C30.625 22.7173 30.3103 22.584 29.9156 22.584C29.521 22.584 29.201 22.7173 28.9556 22.984C28.721 23.2507 28.6036 23.5973 28.6036 24.024V28.808C28.6036 28.8613 28.5823 28.9093 28.5396 28.952C28.5076 28.984 28.465 29 28.4116 29H26.5396C26.4863 29 26.4383 28.984 26.3956 28.952C26.3636 28.9093 26.3476 28.8613 26.3476 28.808V20.968C26.3476 20.9147 26.3636 20.872 26.3956 20.84C26.4383 20.7973 26.4863 20.776 26.5396 20.776H28.4116C28.465 20.776 28.5076 20.7973 28.5396 20.84C28.5823 20.872 28.6036 20.9147 28.6036 20.968V21.528C28.6036 21.56 28.6143 21.5813 28.6356 21.592C28.657 21.6027 28.673 21.5973 28.6836 21.576C29.121 20.9573 29.7716 20.648 30.6356 20.648Z" fill="white"/>
</svg>
